# xmcd
#
# Track frame offsets: 
#        150
#        30058
#        48328
#        70259
#        87643
#        102575
#        125326
#        143896
#        165348
#        180907
#
# Disc length: 2654 seconds
#
# Revision: 0
# Processed by: cddbd v1.4PL0 Copyright (c) Steve Scherf et al.
# Submitted via: ExactAudioCopy v0.95a1
#
DISCID=7a0a5c0a
DTITLE=RABIZ - Top 10 Of Rabiz - IV
DYEAR=1900
DGENRE=General Easy Listeni
TTITLE0=Anapati Aziz Arev
TTITLE1=Hamesta
TTITLE2=Hett Kgam
TTITLE3=Mama
TTITLE4=Ser Em Berel
TTITLE5=Mrjun
TTITLE6=Sulum En
TTITLE7=Surb Sardgis
TTITLE8=Vard Em Berel
TTITLE9=Me Gusta Chale
EXTD=
EXTT0=
EXTT1=
EXTT2=
EXTT3=
EXTT4=
EXTT5=
EXTT6=
EXTT7=
EXTT8=
EXTT9=
PLAYORDER=
